<?xml version="1.0" encoding="UTF-8"?>
<svg width="1024" height="1024" xmlns="http://www.w3.org/2000/svg">
  <!-- Background gradient -->
  <defs>
    <linearGradient id="bg" x1="0%" y1="0%" x2="100%" y2="100%">
      <stop offset="0%" style="stop-color:#1a237e;stop-opacity:1" />
      <stop offset="100%" style="stop-color:#3949ab;stop-opacity:1" />
    </linearGradient>
  </defs>
  
  <!-- Background circle -->
  <circle cx="512" cy="512" r="512" fill="url(#bg)"/>
  
  <!-- Inner circle border -->
  <circle cx="512" cy="512" r="480" fill="none" stroke="#ffffff" stroke-width="8" opacity="0.3"/>
  
  <!-- Main biorhythm waves -->
  <!-- Physical cycle (red) -->
  <path d="M 150 512 Q 200 350 250 512 T 350 512 T 450 512 T 550 512 T 650 512 T 750 512 T 850 512" 
        fill="none" stroke="#ff5252" stroke-width="12" opacity="0.9"/>
  
  <!-- Emotional cycle (blue) -->
  <path d="M 150 512 Q 220 650 290 512 T 430 512 T 570 512 T 710 512 T 850 512" 
        fill="none" stroke="#2196f3" stroke-width="12" opacity="0.9"/>
  
  <!-- Intellectual cycle (green) -->
  <path d="M 150 512 Q 250 300 350 512 T 550 512 T 750 512 T 950 512" 
        fill="none" stroke="#4caf50" stroke-width="12" opacity="0.9"/>
  
  <!-- Center dot -->
  <circle cx="512" cy="512" r="16" fill="#ffffff" opacity="0.8"/>
  
  <!-- Subtle grid lines -->
  <line x1="150" y1="512" x2="850" y2="512" stroke="#ffffff" stroke-width="2" opacity="0.2"/>
  <line x1="512" y1="200" x2="512" y2="800" stroke="#ffffff" stroke-width="2" opacity="0.2"/>
</svg>
